<svg viewBox="0 0 900 600" xmlns="http://www.w3.org/2000/svg">
  <!-- Title -->
  <text x="450" y="50" text-anchor="middle" font-family="Arial" font-size="24" font-weight="bold" fill="#1F2937">Blue-Green Deployment Architecture</text>
  
  <!-- GitHub Actions -->
  <g transform="translate(100, 100)">
    <rect x="0" y="0" width="160" height="60" rx="10" ry="10" fill="#24292E" />
    <text x="80" y="38" text-anchor="middle" font-family="Arial" font-size="16" font-weight="bold" fill="white">GitHub Actions</text>
  </g>
  
  <!-- Docker Build -->
  <g transform="translate(350, 100)">
    <rect x="0" y="0" width="200" height="60" rx="10" ry="10" fill="#0DB7ED" />
    <text x="100" y="38" text-anchor="middle" font-family="Arial" font-size="16" font-weight="bold" fill="white">Docker build &amp; push</text>
  </g>
  
  <!-- ECR -->
  <g transform="translate(650, 100)">
    <rect x="0" y="0" width="150" height="60" rx="10" ry="10" fill="#FF9900" />
    <text x="75" y="38" text-anchor="middle" font-family="Arial" font-size="16" font-weight="bold" fill="white">ECR</text>
  </g>
  
  <!-- EKS Box -->
  <g transform="translate(150, 210)">
    <rect x="0" y="0" width="600" height="220" rx="10" ry="10" fill="#232F3E" />
    <text x="300" y="35" text-anchor="middle" font-family="Arial" font-size="18" font-weight="bold" fill="white">AWS Elastic Kubernetes Service</text>
    
    <!-- Blue Environment -->
    <rect x="50" y="60" width="200" height="120" rx="8" ry="8" fill="#3B82F6" />
    <text x="150" y="95" text-anchor="middle" font-family="Arial" font-size="18" font-weight="bold" fill="white">blue</text>
    <text x="150" y="130" text-anchor="middle" font-family="Arial" font-size="16" fill="white">v1.18.0</text>
    
    <!-- Green Environment -->
    <rect x="350" y="60" width="200" height="120" rx="8" ry="8" fill="#10B981" />
    <text x="450" y="95" text-anchor="middle" font-family="Arial" font-size="18" font-weight="bold" fill="white">green</text>
    <text x="450" y="130" text-anchor="middle" font-family="Arial" font-size="16" fill="white">v1.19.0</text>
  </g>
  
  <!-- ALB -->
  <g transform="translate(150, 470)">
    <rect x="0" y="0" width="600" height="60" rx="10" ry="10" fill="#FF9900" />
    <text x="300" y="25" text-anchor="middle" font-family="Arial" font-size="16" font-weight="bold" fill="white">AWS ALB Ingress</text>
    <text x="300" y="45" text-anchor="middle" font-family="Arial" font-size="14" fill="white">weight: 100/0 → 0/100</text>
  </g>
  
  <!-- Arrows -->
  <!-- GitHub to Docker -->
  <line x1="260" y1="130" x2="350" y2="130" stroke="#D1D5DB" stroke-width="3" />
  <polygon points="345,125 355,130 345,135" fill="#D1D5DB" />
  
  <!-- Docker to ECR -->
  <line x1="550" y1="130" x2="650" y2="130" stroke="#D1D5DB" stroke-width="3" />
  <polygon points="645,125 655,130 645,135" fill="#D1D5DB" />
  
  <!-- GitHub to EKS (vertical line) -->
  <line x1="180" y1="160" x2="180" y2="210" stroke="#D1D5DB" stroke-width="3" />
  <polygon points="175,205 180,215 185,205" fill="#D1D5DB" />
  
  <!-- EKS to ALB -->
  <line x1="450" y1="430" x2="450" y2="470" stroke="#D1D5DB" stroke-width="3" />
  <polygon points="445,465 450,475 455,465" fill="#D1D5DB" />
  
  <!-- Traffic Flow Arrows (indicating weight shift) -->
  <g transform="translate(250, 545)">
    <path d="M0,0 C50,-20 100,-20 150,0" stroke="#3B82F6" stroke-width="3" fill="none" stroke-dasharray="5,5" />
    <text x="75" y="-25" text-anchor="middle" font-family="Arial" font-size="12" fill="#333333">Traffic Flow (Blue)</text>
  </g>
  
  <g transform="translate(500, 545)">
    <path d="M0,0 C50,-20 100,-20 150,0" stroke="#10B981" stroke-width="3" fill="none" />
    <text x="75" y="-25" text-anchor="middle" font-family="Arial" font-size="12" fill="#333333">Traffic Flow (Green)</text>
  </g>
  
  <!-- Note -->
  <text x="450" y="580" text-anchor="middle" font-family="Arial" font-size="12" font-style="italic" fill="#6B7280">*Works the same on Cloud Run, Fly.io, or bare-metal K8s—just replace ALB with your load balancer.</text>
</svg>