<svg viewBox="0 0 800 500" xmlns="http://www.w3.org/2000/svg">
  <!-- Boxes -->
  <!-- Client -->
  <rect x="100" y="50" width="200" height="60" rx="5" ry="5" fill="#d4e6ff" stroke="#3b82f6" stroke-width="2" />
  <text x="200" y="85" text-anchor="middle" font-family="Arial" font-size="16" font-weight="bold">Client</text>
  
  <!-- Gateway -->
  <rect x="500" y="50" width="200" height="60" rx="5" ry="5" fill="#d1fae5" stroke="#10b981" stroke-width="2" />
  <text x="600" y="85" text-anchor="middle" font-family="Arial" font-size="16" font-weight="bold">Gateway</text>
  
  <!-- API Edge -->
  <rect x="100" y="180" width="200" height="60" rx="5" ry="5" fill="#ede9fe" stroke="#8b5cf6" stroke-width="2" />
  <text x="200" y="215" text-anchor="middle" font-family="Arial" font-size="16" font-weight="bold">API Edge</text>
  
  <!-- Queue -->
  <rect x="500" y="180" width="200" height="60" rx="5" ry="5" fill="#fef3c7" stroke="#f59e0b" stroke-width="2" />
  <text x="600" y="215" text-anchor="middle" font-family="Arial" font-size="16" font-weight="bold">Queue</text>
  
  <!-- PaymentSvc -->
  <rect x="100" y="310" width="200" height="60" rx="5" ry="5" fill="#fee2e2" stroke="#ef4444" stroke-width="2" />
  <text x="200" y="345" text-anchor="middle" font-family="Arial" font-size="16" font-weight="bold">PaymentSvc</text>
  
  <!-- tenant_payment_cfg -->
  <rect x="350" y="310" width="350" height="60" rx="5" ry="5" fill="#f3f4f6" stroke="#6b7280" stroke-width="2" />
  <text x="525" y="345" text-anchor="middle" font-family="Arial" font-size="16">tenant_payment_cfg</text>
  
  <!-- Arrows -->
  <!-- Client to Gateway -->
  <line x1="300" y1="75" x2="500" y2="75" stroke="#374151" stroke-width="2" marker-end="url(#arrowhead)" />
  <text x="400" y="65" text-anchor="middle" font-family="Arial" font-size="12">card / UPI</text>
  
  <!-- Gateway to Client -->
  <line x1="500" y1="95" x2="300" y2="95" stroke="#374151" stroke-width="2" marker-end="url(#arrowhead)" />
  <text x="400" y="115" text-anchor="middle" font-family="Arial" font-size="12">token / nonce</text>
  
  <!-- Client to API Edge -->
  <line x1="200" y1="110" x2="200" y2="180" stroke="#374151" stroke-width="2" marker-end="url(#arrowhead)" />
  <text x="160" y="145" text-anchor="middle" font-family="Arial" font-size="12">JWT</text>
  
  <!-- API Edge to PaymentSvc -->
  <line x1="200" y1="240" x2="200" y2="310" stroke="#374151" stroke-width="2" marker-end="url(#arrowhead)" />
  
  <!-- API Edge to tenant_payment_cfg -->
  <line x1="300" y1="210" x2="400" y2="310" stroke="#374151" stroke-width="2" marker-end="url(#arrowhead)" />
  <text x="350" y="270" text-anchor="middle" font-family="Arial" font-size="12">tenant_id →</text>
  
  <!-- Gateway to Queue -->
  <line x1="600" y1="110" x2="600" y2="180" stroke="#374151" stroke-width="2" marker-end="url(#arrowhead)" />
  <text x="640" y="145" text-anchor="middle" font-family="Arial" font-size="12">webhooks</text>
  
  <!-- Queue to Gateway -->
  <line x1="550" y1="180" x2="550" y2="110" stroke="#374151" stroke-width="2" marker-end="url(#arrowhead)" />
  <text x="520" y="145" text-anchor="middle" font-family="Arial" font-size="12">retry</text>
  
  <!-- Markers -->
  <defs>
    <marker id="arrowhead" markerWidth="10" markerHeight="7" refX="9" refY="3.5" orient="auto">
      <polygon points="0 0, 10 3.5, 0 7" fill="#374151" />
    </marker>
  </defs>
  
  <!-- Legend
  <rect x="100" y="400" width="600" height="80" rx="5" ry="5" fill="#ffffff" stroke="#e5e7eb" stroke-width="1" />
  <text x="120" y="425" font-family="Arial" font-size="14" font-weight="bold">• TenantPaymentCfg table stores gateway keys, payout prefs.</text>
  <text x="120" y="450" font-family="Arial" font-size="14" font-weight="bold">• Webhooks land at /gateway/${tenantId}/callback → queue for idempotent processing.</text>
  <text x="120" y="475" font-family="Arial" font-size="14" font-weight="bold">• Retry with exponential back-off; poison queue alerts PagerDuty.</text> -->
</svg>